<svg width="256" height="256" viewBox="0 0 48 48" fill="none" xmlns="http://www.w3.org/2000/svg">
  <defs>
    <linearGradient id="logo-grad" x1="0" y1="0" x2="48" y2="48" gradientUnits="userSpaceOnUse">
      <stop offset="0%" stop-color="#3B82F6" />
      <stop offset="100%" stop-color="#007AFF" />
    </linearGradient>
  </defs>
  <rect width="48" height="48" rx="14" fill="url(#logo-grad)" />
  <path
    d="M34.5 14.5L20 22l-6-2.5L12 21l6 3.5 3.5 6 1.5-2L20.5 22l12-5.5c1-.5 2.5.5 2 1.5l-8 16.5-2 1-1.5-4.5-5-3-1 2 4 2.5 1.5 5c.3.8 1.2 1.2 2 .8l3.5-2 9.5-19.5c.8-1.5-.5-3.5-2.5-2.8z"
    fill="white"
    opacity="0.95"
  />
  <path d="M10 32c2-1 4.5-1.5 7-1" stroke="white" stroke-width="1.5" stroke-linecap="round" opacity="0.5" />
  <path d="M10 35.5c1.5-.8 3.5-1.2 5.5-.8" stroke="white" stroke-width="1.2" stroke-linecap="round" opacity="0.35" />
</svg>
